<?xml version="1.0" encoding="UTF-8" standalone="no"?>
<svg
   width="66"
   height="29.32"
   viewBox="0 0 66.00002 29.32"
   version="1.1"
   id="svg42"
   sodipodi:docname="logo.svg"
   inkscape:version="1.1.2 (1:1.1+202202050950+0a00cf5339)"
   xmlns:inkscape="http://www.inkscape.org/namespaces/inkscape"
   xmlns:sodipodi="http://sodipodi.sourceforge.net/DTD/sodipodi-0.dtd"
   xmlns="http://www.w3.org/2000/svg"
   xmlns:svg="http://www.w3.org/2000/svg">
  <defs
     id="defs7" />
  <sodipodi:namedview
     id="namedview5"
     pagecolor="#ffffff"
     bordercolor="#666666"
     borderopacity="1.0"
     inkscape:pageshadow="2"
     inkscape:pageopacity="0.0"
     inkscape:pagecheckerboard="0"
     showgrid="false"
     inkscape:zoom="7.8699244"
     inkscape:cx="22.808351"
     inkscape:cy="11.245343"
     inkscape:window-width="1366"
     inkscape:window-height="654"
     inkscape:window-x="0"
     inkscape:window-y="27"
     inkscape:window-maximized="1"
     inkscape:current-layer="svg42"
     width="66px" />
  <g
     aria-label="Yewo"
     id="text1420"
     style="font-size:40px;line-height:1.25;fill:#ffffff"
     transform="matrix(0.44648908,0,0,0.44648908,7.814097,8.11447)">
    <path
       d="M 6.08,28.4 H 18.4 V 22.8 H 15.48 V 17.56 L 21.24,5.5999996 h 3.24 V -3.8146973e-7 H 17.52 L 12.52,11.44 7.6,-3.8146973e-7 H -1.1920929e-8 V 5.5999996 H 3.28 L 9.04,17.56 V 22.8 H 6.08 Z"
       style="font-weight:800;font-family:'RNS Camelia';-inkscape-font-specification:'RNS Camelia Ultra-Bold';fill:#ffffff"
       id="path5582" />
    <path
       d="m 35.079909,29.32 c 5.44,0 9.84,-2.92 11.24,-7.6 h -6.12 c -1,1.6 -2.84,2.56 -5,2.56 -2.92,0 -5.28,-1.92 -5.52,-4.88 h 17.04 c 0.12,-1.08 0.12,-1.56 0.12,-2.44 0,-6.44 -4.52,-11.2000004 -11.48,-11.2000004 -7,0 -11.64,4.7200004 -11.64,11.8000004 0,7.04 4.6,11.76 11.36,11.76 z m -5.36,-13.88 c 0.4,-2.6 2.56,-4.6 5.68,-4.6 3.04,0 5.28,1.84 5.64,4.6 z"
       style="font-weight:800;font-family:'RNS Camelia';-inkscape-font-specification:'RNS Camelia Ultra-Bold';fill:#ffffff"
       id="path5584" />
    <path
       d="m 55.839835,28.4 h 5.48 l 3.76,-13.72 4.48,13.72 h 5.4 l 5,-16.76 h 2.68 V 6.7199996 h -6.6 l -3.92,14.6400004 -4.4,-14.6400004 h -4.64 l -4.24,14.6400004 -3.92,-14.6400004 h -6.88 V 11.64 h 2.72 z"
       style="font-weight:800;font-family:'RNS Camelia';-inkscape-font-specification:'RNS Camelia Ultra-Bold';fill:#ffffff"
       id="path5586" />
    <path
       d="m 95.679745,29.32 c 7.079995,0 11.839995,-4.72 11.839995,-11.8 0,-7.04 -4.76,-11.7600004 -11.839995,-11.7600004 -7.04,0 -11.8,4.7200004 -11.8,11.7600004 0,7.08 4.76,11.8 11.8,11.8 z m 0.04,-5.36 c -3.6,0 -6.04,-2.56 -6.04,-6.44 0,-3.8 2.44,-6.36 6.04,-6.36 3.6,0 5.999995,2.56 5.999995,6.36 0,3.88 -2.399995,6.44 -5.999995,6.44 z"
       style="font-weight:800;font-family:'RNS Camelia';-inkscape-font-specification:'RNS Camelia Ultra-Bold';fill:#ffffff"
       id="path5588" />
  </g>
</svg>
