<?xml version="1.0" encoding="UTF-8" standalone="no"?>
<!-- Created with Inkscape (http://www.inkscape.org/) -->

<svg
   xmlns:dc="http://purl.org/dc/elements/1.1/"
   xmlns:cc="http://creativecommons.org/ns#"
   xmlns:rdf="http://www.w3.org/1999/02/22-rdf-syntax-ns#"
   xmlns:svg="http://www.w3.org/2000/svg"
   xmlns="http://www.w3.org/2000/svg"
   xmlns:sodipodi="http://sodipodi.sourceforge.net/DTD/sodipodi-0.dtd"
   xmlns:inkscape="http://www.inkscape.org/namespaces/inkscape"
   width="300"
   height="300"
   viewBox="0 0 79.374999 79.374999"
   version="1.1"
   id="svg8551"
   inkscape:version="0.92.4 (5da689c313, 2019-01-14)"
   sodipodi:docname="o.svg">
  <defs
     id="defs8545" />
  <sodipodi:namedview
     id="base"
     pagecolor="#ffffff"
     bordercolor="#666666"
     borderopacity="1.0"
     inkscape:pageopacity="0.0"
     inkscape:pageshadow="2"
     inkscape:zoom="0.98994949"
     inkscape:cx="268.5387"
     inkscape:cy="119.63085"
     inkscape:document-units="mm"
     inkscape:current-layer="layer1"
     showgrid="false"
     units="px"
     inkscape:window-width="1360"
     inkscape:window-height="705"
     inkscape:window-x="-8"
     inkscape:window-y="-8"
     inkscape:window-maximized="1" />
  <metadata
     id="metadata8548">
    <rdf:RDF>
      <cc:Work
         rdf:about="">
        <dc:format>image/svg+xml</dc:format>
        <dc:type
           rdf:resource="http://purl.org/dc/dcmitype/StillImage" />
        <dc:title />
      </cc:Work>
    </rdf:RDF>
  </metadata>
  <g
     inkscape:label="Layer 1"
     inkscape:groupmode="layer"
     id="layer1"
     transform="translate(0,-217.625)">
    <path
       style="opacity:1;fill:#d7eef4;fill-opacity:1;fill-rule:evenodd;stroke:none;stroke-width:0.47593662;stroke-linecap:square;stroke-linejoin:miter;stroke-miterlimit:4;stroke-dasharray:none;stroke-dashoffset:124.72441101;stroke-opacity:1;paint-order:stroke fill markers"
       d="M 39.687498,237.46875 A 19.843726,19.843724 0 0 0 19.84375,257.3125 19.843726,19.843724 0 0 0 39.687498,277.15625 19.843726,19.843724 0 0 0 59.53125,257.3125 19.843726,19.843724 0 0 0 39.687498,237.46875 Z m 0,5.34246 A 14.501184,14.501182 0 0 1 54.188535,257.3125 14.501184,14.501182 0 0 1 39.687498,271.81354 14.501184,14.501182 0 0 1 25.186213,257.3125 14.501184,14.501182 0 0 1 39.687498,242.81121 Z"
       id="path815"
       inkscape:connector-curvature="0" />
  </g>
</svg>
