<?xml version="1.0" encoding="UTF-8" standalone="no"?>
<svg
   width="241.32797"
   height="241.32797"
   version="1.1"
   id="svg8"
   sodipodi:docname="leaflet.svg"
   inkscape:version="1.4.2 (1:1.4.2+202505120737+ebf0e940d0)"
   xmlns:inkscape="http://www.inkscape.org/namespaces/inkscape"
   xmlns:sodipodi="http://sodipodi.sourceforge.net/DTD/sodipodi-0.dtd"
   xmlns="http://www.w3.org/2000/svg"
   xmlns:svg="http://www.w3.org/2000/svg">
  <defs
     id="defs8" />
  <sodipodi:namedview
     id="namedview8"
     pagecolor="#ffffff"
     bordercolor="#000000"
     borderopacity="0.25"
     inkscape:showpageshadow="2"
     inkscape:pageopacity="0.0"
     inkscape:pagecheckerboard="0"
     inkscape:deskcolor="#d1d1d1"
     inkscape:zoom="0.41607585"
     inkscape:cx="-37.252823"
     inkscape:cy="267.97998"
     inkscape:window-width="1366"
     inkscape:window-height="655"
     inkscape:window-x="0"
     inkscape:window-y="0"
     inkscape:window-maximized="1"
     inkscape:current-layer="svg8" />
  <linearGradient
     id="a"
     x1="1603.924"
     x2="1698.0341"
     y1="1483.083"
     y2="1483.083"
     gradientTransform="rotate(9.6,9049.018,-4722.716)"
     gradientUnits="userSpaceOnUse">
    <stop
       offset="0"
       stop-color="#89C442"
       id="stop1" />
    <stop
       offset="1"
       stop-color="#74B844"
       id="stop2" />
  </linearGradient>
  <linearGradient
     id="b"
     x1="1606.047"
     x2="1687.254"
     y1="1478.166"
     y2="1478.166"
     gradientTransform="rotate(9.6,1169.206,-709.023)"
     gradientUnits="userSpaceOnUse">
    <stop
       offset="0"
       stop-color="#74B844"
       id="stop3" />
    <stop
       offset="1"
       stop-color="#4A9634"
       id="stop4" />
  </linearGradient>
  <path
     fill="#3c3c3b"
     fill-rule="evenodd"
     d="m -223.22802,236.713 0.618,-4.337 c 17.52,-9.335 39.344,-12.934 57.105,-21.945 5.328,2.4 7.697,-1.06 13.38,-0.74 2.062,1.86 -2.594,4.35 2.974,3.97 12.65,1.68 24.97,-0.68 37.41,-1.74 13.119996,-1.12 26.149996,0.13 39.019996,-0.63 4.11,-0.24 10.44,-5.93 15.48,-3.1 2.28,4.13 -7.44,4.49 -4.83,9.05 25.76,6.06 90.19,31.68 101.21,3.81 0.15,1.7 -1.93,5.06 1.11,4.59 21.72,-9.72 58.63,-30.71 65.130004,-36.21 7.14,-6.04 16.66,-5.85 26,-8 16.82,-3.87 34.77,-7.81 49.33,-16.29 9,6.25 27.84,9.36 37.91,7.18 10.51,-2.28 26.82,-19.73 35.55,-25.9 3.43,-2.42 8.45,-7.13 12.14,-4.46 -2.48,1.7 0.44,6.68 -2.6,5.82 -1.59,-3.04 -4.76,0.47 -7.07,-0.12 -8.79,7.21 -17.92,13.96 -26.88,20.94 -4.18,2.57 4.03,5.23 -0.87,6.07 -23.14,4.6 -58.38,-6.92 -72.968,9.07 -23.115,7.91 -44.98,9.92 -67.760004,22.2 -13.09,7.06 -29.108,19.9 -42.734,26.65 -2.31,1.15 -5.693,1.55 -8.423,3.23 -3.32,2.04 -4.136,4.6 -6.937,5.204 -6.98,1.503 -21.4000004,-2.14 -30.48000041,-3.46 -30.27999959,-4.4 -62.60999959,-16.746 -91.18399959,-18.31 -11.299996,-0.62 -24.639996,1.17 -37.411996,1.744 -27.15,1.226 -44.13,1.87 -65.9,9.19 -8.9,2.997 -22.59,10.93 -28.364,6.58 z"
     clip-rule="evenodd"
     id="path5" />
  <linearGradient
     id="c"
     x1="1280.9659"
     x2="1438.704"
     y1="1562.8311"
     y2="1562.8311"
     gradientTransform="rotate(161.46,940.413,-772.15)"
     gradientUnits="userSpaceOnUse">
    <stop
       offset="0"
       stop-color="#C1EA71"
       id="stop5" />
    <stop
       offset="1"
       stop-color="#ACDA55"
       id="stop6" />
  </linearGradient>
  <linearGradient
     id="d"
     x1="1284.556"
     x2="1422.002"
     y1="1554.3979"
     y2="1554.3979"
     gradientTransform="rotate(161.46,1112.102,-37.725)"
     gradientUnits="userSpaceOnUse">
    <stop
       offset="0"
       stop-color="#ACDA55"
       id="stop7" />
    <stop
       offset="1"
       stop-color="#89C442"
       id="stop8" />
  </linearGradient>
  <g
     id="g8"
     transform="translate(-643.15002)">
    <path
       fill="url(#a)"
       d="m 674.318,92.395 c 2.234,2.608 46.097,17.218 61.347,34.97 15.25,17.754 21.907,33.598 19.754,48.832 -2.15,15.234 -11.47,14.982 -15.54,20.53 -4.07,5.547 -9.69,12.388 -20.49,11.66 -14.14,-0.948 -28.72,-8.014 -39.25,-32.54 -10.53,-24.527 -9.72,-47.567 -8.88,-60.35 0.84,-12.78 3.04,-23.102 3.04,-23.102 z"
       id="path2"
       style="fill:url(#a)" />
    <path
       fill="url(#b)"
       d="m 1239.667,1476.602 65.69,97.927 -3.028,3.38"
       transform="translate(-567.983,-1376)"
       id="path4"
       style="fill:url(#b)" />
    <path
       fill="url(#c)"
       d="m 839.46,0 c -3.05,4.944 -72.6,40.807 -93.475,74.472 -20.873,33.665 -26.828,60.172 -19.26,85.09 7.566,24.914 22.03,23.792 30.275,32.008 8.246,8.22 19.432,18.193 37.3,14.166 23.395,-5.275 45.94,-20.89 57.155,-64.65 11.214,-43.762 3.86,-82.083 -0.88,-103.242 C 845.838,16.687 839.462,0 839.462,0 Z"
       id="path6"
       style="fill:url(#c)" />
    <path
       fill="url(#d)"
       d="m 1406.26,1383.39 -84.338,180.893 4.95,4.97"
       transform="translate(-567.983,-1376)"
       id="path8"
       style="fill:url(#d)" />
  </g>
</svg>
