<?xml version="1.0" encoding="UTF-8"?>
<!-- Created with Inkscape (http://www.inkscape.org/) -->
<svg width="60mm" height="60mm" version="1.1" viewBox="0 0 60 60" xmlns="http://www.w3.org/2000/svg">
 <path transform="scale(.26458)" d="m152.85 177.46c-1.9721 3.594-3.9281 7.146-5.8613 10.648l5.0723 0.68555c12.437 1.6822 22.663 4.1783 29.318 6.9043 3.3276 1.363 5.7408 2.8115 6.9902 3.9023 0.76449 0.6674 0.98198 1.011 1.0508 1.1426-0.13009 0.1414-0.74522 1.2845-3.5469 2.9121-3.3615 1.9529-8.9517 4.0452-16.025 5.7832-14.147 3.4761-34.262 5.7188-56.465 5.7188-22.203 0-42.318-2.2427-56.465-5.7188-7.0736-1.738-12.666-3.8304-16.027-5.7832-2.7955-1.6241-3.4136-2.7647-3.5449-2.9102 0.067825-0.12981 0.28276-0.47206 1.0449-1.1387 1.2435-1.0876 3.6457-2.5334 6.9609-3.8945 6.6304-2.7223 16.824-5.2175 29.223-6.9024l5.0996-0.69336c-1.9345-3.4945-3.9026-7.0628-5.873-10.645l-0.75391 0.10352c-13.031 1.7707-23.907 4.3229-32.002 7.6465-4.0474 1.6618-7.4222 3.489-10.121 5.8496-2.6989 2.3606-4.947 5.6512-4.9746 9.627a5.6699 5.6699 0 0 0 0 0.03906c-8.5e-4 5.8913 4.3331 9.8684 9.2461 12.723 4.913 2.8542 11.295 5.0908 19.018 6.9883 15.445 3.7949 36.214 6.0488 59.17 6.0488 22.956 6e-5 43.725-2.2539 59.17-6.0488 7.7226-1.8975 14.105-4.1341 19.018-6.9883 4.913-2.8542 9.2466-6.8314 9.2461-12.723a5.6699 5.6699 0 0 0 0-0.00586 5.6699 5.6699 0 0 0 0-0.00586 5.6699 5.6699 0 0 0 0-0.00586 5.6699 5.6699 0 0 0 0-0.00586 5.6699 5.6699 0 0 0 0-0.00586 5.6699 5.6699 0 0 0 0-0.00586 5.6699 5.6699 0 0 0 0-0.0039c-0.0273-3.983-2.284-7.2761-4.9902-9.6387-2.7062-2.3626-6.089-4.1907-10.148-5.8535-8.1189-3.3256-19.029-5.8789-32.098-7.6465l-0.73047-0.09961z" color="#000000" fill="#5221e6" stroke-linecap="square" stroke-linejoin="round" style="-inkscape-stroke:none"/>
 <path d="m29.998 1.59c-2.1907 0-4.2773 0.44359-6.1755 1.2464-1.8982 0.80289-3.608 1.9651-5.0435 3.4008-1.4356 1.4356-2.5973 3.1448-3.4002 5.043-0.80288 1.8982-1.247 3.9854-1.247 6.176 0 2.1907 0.44409 4.2773 1.247 6.1755 2.4415 5.6545 14.62 27.109 14.62 27.109s11.962-21.169 14.62-27.109c0.80289-1.8982 1.247-3.9849 1.247-6.1755 0-2.1907-0.44409-4.2778-1.247-6.176-0.80288-1.8982-1.9646-3.6074-3.4002-5.043s-3.1448-2.5978-5.043-3.4008c-1.8982-0.80293-3.9854-1.2464-6.176-1.2464zm0 8.7185a5.8762 5.8762 0 0 1 5.8762 5.8762 5.8762 5.8762 0 0 1-5.8762 5.8762 5.8762 5.8762 0 0 1-5.8762-5.8762 5.8762 5.8762 0 0 1 5.8762-5.8762z" fill="none" stroke="#5221e6" stroke-linecap="round" stroke-width="2.9927"/>
</svg>
